<svg width="121" height="35" viewBox="0 0 121 35" fill="none" xmlns="http://www.w3.org/2000/svg">
<path fill-rule="evenodd" clip-rule="evenodd" d="M76.2001 10.17L74.2001 6.79L70.6501 8.48L68.6501 5.09L65.1001 6.79L63.1101 3.39L59.5601 5.09L57.5601 1.7L54.0101 3.4L52.0201 0L48.4601 1.7L40.9301 26.22L50.0801 29.02C50.4247 27.9148 51.1534 26.9694 52.1343 26.3545C53.1152 25.7397 54.2837 25.496 55.4286 25.6675C56.5735 25.839 57.6193 26.4143 58.377 27.2896C59.1347 28.1649 59.5543 29.2823 59.5601 30.44V30.54C59.5801 30.98 59.5301 31.42 59.4001 31.86L68.7001 34.71L76.2001 10.17Z" fill="#D61920"/>
<path fill-rule="evenodd" clip-rule="evenodd" d="M48.78 24.2001C48.5487 24.1618 48.3388 24.0419 48.1884 23.8621C48.0379 23.6823 47.9569 23.4545 47.96 23.2201V11.2201C47.9587 11.0884 47.9837 10.9578 48.0334 10.8358C48.0832 10.7139 48.1568 10.6031 48.25 10.51C48.3431 10.4169 48.4539 10.3433 48.5758 10.2935C48.6977 10.2437 48.8284 10.2187 48.96 10.2201H57.6301C58.1409 10.2188 58.647 10.3181 59.1194 10.5124C59.5919 10.7066 60.0215 10.9921 60.3836 11.3524C60.7458 11.7127 61.0334 12.1408 61.2301 12.6122C61.4268 13.0837 61.5287 13.5892 61.53 14.1001V23.2201C61.5298 23.3674 61.497 23.5128 61.434 23.6459C61.371 23.779 61.2794 23.8966 61.1658 23.9902C61.0521 24.0839 60.9191 24.1512 60.7764 24.1875C60.6336 24.2238 60.4846 24.2281 60.34 24.2001C60.1106 24.1597 59.903 24.0389 59.7546 23.8593C59.6061 23.6797 59.5265 23.4531 59.53 23.2201V14.1101C59.53 13.6062 59.3299 13.1229 58.9736 12.7666C58.6172 12.4103 58.134 12.2101 57.6301 12.2101H55.7401V23.2101C55.7408 23.3441 55.7147 23.4769 55.6631 23.6005C55.6116 23.7242 55.5357 23.8363 55.44 23.9301C55.3262 24.043 55.1866 24.1265 55.0333 24.1736C54.88 24.2206 54.7176 24.2297 54.5601 24.2001C54.3287 24.1618 54.1188 24.0419 53.9684 23.8621C53.8179 23.6823 53.7369 23.4545 53.7401 23.2201V12.2101H49.96V23.2101C49.961 23.3572 49.9294 23.5027 49.8677 23.6362C49.8059 23.7697 49.7155 23.888 49.6028 23.9825C49.4901 24.0771 49.3579 24.1456 49.2157 24.1832C49.0735 24.2208 48.9247 24.2266 48.78 24.2001ZM63.2001 29.4301C62.967 29.3916 62.7557 29.2702 62.605 29.0883C62.4544 28.9064 62.3745 28.6762 62.3801 28.4401C62.3812 28.1777 62.4853 27.9263 62.67 27.7401C62.8547 27.5517 63.1063 27.4438 63.37 27.4401C64.22 27.4401 64.9501 26.9001 65.1901 26.0901L66.2201 22.6601L62.85 11.3901C62.8099 11.264 62.7951 11.1313 62.8066 10.9995C62.818 10.8677 62.8556 10.7395 62.917 10.6223C62.9783 10.5051 63.0624 10.4012 63.1642 10.3167C63.266 10.2323 63.3835 10.1688 63.51 10.1301C63.7619 10.0603 64.031 10.0898 64.2618 10.2126C64.4925 10.3354 64.6673 10.5421 64.75 10.7901L67.25 19.1901L69.7901 10.7901C69.9101 10.3301 70.4201 10.0201 70.9401 10.1201L71.0101 10.1301C71.5501 10.3001 71.8501 10.8701 71.6901 11.4001L68.2201 22.9601L67.1201 26.6601C66.8732 27.4564 66.3837 28.1556 65.7201 28.6601C65.045 29.1664 64.2239 29.4401 63.3801 29.4401C63.3199 29.4424 63.2596 29.4391 63.2001 29.4301Z" fill="#FEFEFE"/>
<path fill-rule="evenodd" clip-rule="evenodd" d="M2.0801 22.01H4.0401C4.56258 22.01 5.06365 21.8024 5.4331 21.433C5.80255 21.0635 6.0101 20.5625 6.0101 20.04V14.27C6.01142 14.0113 5.96176 13.7548 5.86398 13.5153C5.76619 13.2758 5.62218 13.0579 5.44018 12.874C5.25817 12.6902 5.04174 12.544 4.80323 12.4438C4.56472 12.3435 4.3088 12.2913 4.0501 12.29H2.0801V21.99V22.01ZM0.8501 24.07C0.609987 24.0294 0.392309 23.9043 0.236414 23.7172C0.0805202 23.5301 -0.00330232 23.2935 9.96254e-05 23.05V5.12998C-0.00166797 4.99287 0.0239572 4.8568 0.0754726 4.72972C0.126988 4.60265 0.203356 4.48715 0.3001 4.38998C0.417145 4.26844 0.562256 4.17752 0.722676 4.12521C0.883095 4.0729 1.05391 4.0608 1.2201 4.08998C1.7201 4.18998 2.0801 4.60998 2.0801 5.11998V10.22H4.0401C4.57148 10.2187 5.0979 10.3222 5.58921 10.5246C6.08052 10.7271 6.52707 11.0244 6.90328 11.3997C7.27949 11.775 7.57797 12.2208 7.78162 12.7116C7.98527 13.2024 8.0901 13.7286 8.0901 14.26V20.03C8.08746 21.1006 7.66097 22.1267 6.90389 22.8838C6.14682 23.6409 5.12076 24.0673 4.0501 24.07H1.0401C0.973268 24.0739 0.906204 24.0706 0.8401 24.06L0.8501 24.07Z" fill="#333545"/>
<path fill-rule="evenodd" clip-rule="evenodd" d="M15.1401 12.21C15.0279 12.1904 14.9141 12.1804 14.8001 12.18C14.5407 12.1773 14.2833 12.2265 14.0431 12.3245C13.8029 12.4226 13.5846 12.5676 13.4012 12.7511C13.2177 12.9345 13.0727 13.1528 12.9747 13.393C12.8766 13.6332 12.8275 13.8906 12.8301 14.15V20.16C12.8288 20.4191 12.8789 20.6759 12.9774 20.9155C13.0759 21.1551 13.221 21.3728 13.4042 21.556C13.5874 21.7392 13.8051 21.8842 14.0447 21.9828C14.2843 22.0813 14.5411 22.1313 14.8001 22.13C15.3226 22.13 15.8237 21.9225 16.1931 21.553C16.5626 21.1836 16.7701 20.6825 16.7701 20.16V14.16C16.7701 13.19 16.0801 12.38 15.1401 12.21ZM14.0901 24.16C13.1525 23.9951 12.3033 23.5043 11.6923 22.7743C11.0812 22.0443 10.7475 21.122 10.7501 20.17V14.16C10.7484 13.6281 10.8527 13.1012 11.0571 12.6102C11.2614 12.1191 11.5616 11.6737 11.9401 11.3C12.3156 10.9246 12.7616 10.6271 13.2524 10.4246C13.7432 10.2221 14.2692 10.1186 14.8001 10.12C15.8716 10.12 16.8992 10.5457 17.6569 11.3033C18.4145 12.061 18.8401 13.0885 18.8401 14.16V20.17C18.8401 21.25 18.4201 22.27 17.6501 23.04C17.2762 23.4147 16.8319 23.7118 16.3428 23.9143C15.8537 24.1168 15.3295 24.2207 14.8001 24.22C14.5622 24.221 14.3246 24.2009 14.0901 24.16ZM25.8901 12.22C25.7779 12.2004 25.6641 12.1903 25.5501 12.19C25.2907 12.1873 25.0333 12.2365 24.7931 12.3345C24.5529 12.4326 24.3346 12.5776 24.1512 12.7611C23.9677 12.9445 23.8227 13.1628 23.7247 13.403C23.6266 13.6432 23.5775 13.9006 23.5801 14.16V20.17C23.5788 20.4291 23.6289 20.6859 23.7274 20.9255C23.8259 21.1651 23.971 21.3828 24.1542 21.566C24.3374 21.7492 24.5551 21.8942 24.7947 21.9928C25.0343 22.0913 25.2911 22.1413 25.5501 22.14C25.8092 22.1413 26.066 22.0913 26.3056 21.9928C26.5452 21.8942 26.7629 21.7492 26.9461 21.566C27.1293 21.3828 27.2744 21.1651 27.3729 20.9255C27.4714 20.6859 27.5215 20.4291 27.5201 20.17V14.16C27.5201 13.2 26.8301 12.39 25.8901 12.22ZM24.8401 24.16C23.9044 23.993 23.0575 23.5013 22.4484 22.7715C21.8394 22.0417 21.5071 21.1206 21.5101 20.17V14.16C21.5117 13.5707 21.6419 12.9888 21.8916 12.4549C22.1413 11.9211 22.5045 11.4482 22.9558 11.0692C23.4072 10.6902 23.9358 10.4143 24.5048 10.2607C25.0738 10.1072 25.6694 10.0796 26.2501 10.18C27.1879 10.3426 28.0381 10.831 28.651 11.5591C29.2639 12.2872 29.6 13.2083 29.6001 14.16V20.17C29.6014 20.7042 29.4959 21.2333 29.2898 21.7261C29.0837 22.219 28.7812 22.6657 28.4001 23.04C28.0262 23.4147 27.5819 23.7118 27.0928 23.9143C26.6037 24.1168 26.0795 24.2207 25.5501 24.22C25.3101 24.22 25.0701 24.2 24.8401 24.16ZM33.1101 24.2C32.87 24.1595 32.6524 24.0343 32.4965 23.8473C32.3406 23.6602 32.2567 23.4235 32.2601 23.18V5.13002C32.2601 4.85002 32.3601 4.58002 32.5601 4.39002C32.6781 4.27357 32.8224 4.18731 32.9808 4.13857C33.1393 4.08982 33.3071 4.08003 33.4701 4.11002C33.9701 4.19002 34.3401 4.62002 34.3401 5.13002V15.81L39.1201 10.45C39.3601 10.19 39.7201 10.07 40.0801 10.13C40.2617 10.1604 40.4317 10.2388 40.5726 10.3572C40.7136 10.4756 40.8202 10.6295 40.8814 10.8031C40.9427 10.9766 40.9563 11.1634 40.9209 11.344C40.8855 11.5246 40.8024 11.6924 40.6801 11.83L37.0701 15.86L40.8001 22.69C40.8673 22.8052 40.9108 22.9327 40.9279 23.0649C40.9451 23.1972 40.9357 23.3315 40.9001 23.46C40.8615 23.5925 40.7964 23.7157 40.7087 23.8223C40.621 23.9289 40.5127 24.0165 40.3901 24.08C40.1784 24.2017 39.9303 24.2443 39.6901 24.2C39.5407 24.1748 39.3988 24.1169 39.2743 24.0304C39.1498 23.944 39.046 23.8312 38.9701 23.7L35.6101 17.52L34.3301 18.93V23.18C34.3301 23.4558 34.2206 23.7204 34.0255 23.9154C33.8305 24.1105 33.566 24.22 33.2901 24.22C33.2201 24.22 33.1601 24.22 33.0901 24.2H33.1101ZM78.9201 24.19C78.3578 24.0958 77.8236 23.8773 77.3565 23.5503C76.8893 23.2233 76.5011 22.7962 76.2201 22.3C76.0827 22.0569 76.0468 21.7694 76.1201 21.5C76.2001 21.24 76.3701 21.02 76.6001 20.88C76.8137 20.7634 77.0611 20.7245 77.3001 20.77C77.6002 20.82 77.8701 21 78.0201 21.27C78.2901 21.73 78.7201 22.03 79.2501 22.12C79.5234 22.1675 79.8039 22.1526 80.0705 22.0764C80.3372 22.0002 80.5832 21.8647 80.7901 21.68C81.1901 21.31 81.3901 20.78 81.3401 20.26C81.329 19.9935 81.2554 19.7333 81.1251 19.5005C80.9948 19.2677 80.8115 19.0689 80.5901 18.92L77.7901 16.93C77.334 16.6097 76.954 16.1927 76.6775 15.7087C76.4009 15.2247 76.2345 14.6857 76.1901 14.13C76.154 13.5694 76.2459 13.0079 76.459 12.4881C76.6721 11.9683 77.0008 11.5039 77.4201 11.13C77.8292 10.7497 78.3179 10.4653 78.8507 10.2975C79.3835 10.1298 79.9469 10.0828 80.5001 10.16C81.6801 10.36 82.6401 11.04 83.1901 12C83.3227 12.2399 83.3571 12.5218 83.2863 12.7866C83.2154 13.0513 83.0448 13.2784 82.8101 13.42C82.5984 13.5417 82.3503 13.5843 82.1101 13.54C81.9607 13.5148 81.8187 13.4569 81.6943 13.3704C81.5698 13.284 81.466 13.1712 81.3901 13.04C81.2647 12.8279 81.0938 12.6461 80.8898 12.5078C80.6858 12.3695 80.4537 12.278 80.2101 12.24C79.961 12.1949 79.7047 12.2085 79.4617 12.2797C79.2187 12.3508 78.9956 12.4776 78.8101 12.65C78.6291 12.8209 78.4877 13.0295 78.3961 13.2611C78.3046 13.4926 78.265 13.7415 78.2801 13.99C78.3001 14.48 78.5801 14.96 79.0001 15.24L81.8001 17.19C82.2755 17.5228 82.6685 17.9598 82.9492 18.4675C83.23 18.9753 83.391 19.5405 83.4201 20.12C83.4665 20.6968 83.3776 21.2764 83.1606 21.8129C82.9436 22.3493 82.6045 22.8277 82.1701 23.21C81.7477 23.6025 81.2431 23.896 80.693 24.0689C80.1429 24.2419 79.5612 24.2901 78.9901 24.21L78.9101 24.19H78.9201ZM86.9501 24.22C86.71 24.1778 86.4922 24.0525 86.335 23.8661C86.1778 23.6797 86.0911 23.4439 86.0901 23.2V5.15002C86.0888 5.01308 86.1148 4.87724 86.1666 4.75046C86.2184 4.62367 86.2949 4.50849 86.3918 4.41165C86.4886 4.31481 86.6038 4.23826 86.7306 4.18647C86.8574 4.13467 86.9932 4.10869 87.1301 4.11002L87.3301 4.12002C87.8301 4.22002 88.1701 4.63002 88.1701 5.15002V10.25H90.1401C90.6711 10.2487 91.197 10.3523 91.6877 10.5549C92.1785 10.7574 92.6244 11.055 92.9998 11.4304C93.3752 11.8058 93.6727 12.2517 93.8753 12.7424C94.0779 13.2332 94.1815 13.7591 94.1801 14.29V23.19C94.181 23.341 94.1487 23.4904 94.0854 23.6275C94.0221 23.7646 93.9295 23.8861 93.814 23.9834C93.6986 24.0807 93.5631 24.1515 93.4173 24.1906C93.2715 24.2298 93.1188 24.2364 92.9701 24.21C92.4701 24.12 92.1101 23.69 92.1101 23.18V14.28C92.1101 14.0218 92.0591 13.7661 91.96 13.5276C91.8609 13.2892 91.7156 13.0727 91.5325 12.8905C91.3495 12.7084 91.1322 12.5642 90.8933 12.4663C90.6543 12.3684 90.3984 12.3187 90.1401 12.32H88.1701V23.19C88.1713 23.342 88.1388 23.4924 88.0749 23.6304C88.0111 23.7683 87.9175 23.8904 87.8008 23.9879C87.6842 24.0854 87.5475 24.1559 87.4004 24.1943C87.2533 24.2327 87.0995 24.2381 86.9501 24.21V24.22ZM101.23 12.23C100.947 12.1786 100.656 12.1902 100.377 12.2641C100.099 12.338 99.8402 12.4724 99.6196 12.6576C99.3991 12.8428 99.222 13.0744 99.1012 13.3358C98.9803 13.5972 98.9184 13.882 98.9201 14.17V20.18C98.9188 20.4383 98.9686 20.6942 99.0665 20.9332C99.1644 21.1721 99.3085 21.3894 99.4907 21.5724C99.6728 21.7555 99.8893 21.9007 100.128 21.9999C100.366 22.099 100.622 22.15 100.88 22.15C101.4 22.15 101.9 21.95 102.27 21.58C102.455 21.3972 102.602 21.1791 102.702 20.9387C102.801 20.6982 102.852 20.4403 102.85 20.18V14.16C102.85 13.2 102.17 12.38 101.22 12.22L101.23 12.23ZM100.17 24.15C99.2352 23.9851 98.3885 23.4955 97.7793 22.7673C97.1701 22.0392 96.8375 21.1194 96.8401 20.17V14.16C96.8403 13.5698 96.9694 12.9868 97.2184 12.4517C97.4675 11.9167 97.8305 11.4425 98.282 11.0624C98.7335 10.6823 99.2626 10.4055 99.8324 10.2514C100.402 10.0972 100.999 10.0695 101.58 10.17C102.52 10.3329 103.371 10.8227 103.984 11.5529C104.597 12.2831 104.932 13.2066 104.93 14.16V20.17C104.931 20.7026 104.825 21.2299 104.619 21.7211C104.413 22.2122 104.11 22.6572 103.73 23.03C103.272 23.4906 102.708 23.8331 102.088 24.0282C101.468 24.2232 100.81 24.2651 100.17 24.15Z" fill="#333545"/>
<path fill-rule="evenodd" clip-rule="evenodd" d="M120.9 11.3999C120.934 11.2729 120.943 11.1403 120.926 11.0099C120.909 10.8795 120.866 10.7538 120.8 10.6399C120.725 10.5185 120.626 10.4135 120.509 10.3311C120.392 10.2486 120.26 10.1904 120.12 10.1599C119.862 10.1112 119.596 10.1627 119.374 10.3039C119.153 10.4451 118.994 10.6655 118.93 10.9199C118.93 10.9699 117.81 15.4799 116.93 18.9099L116.91 18.9799L116.89 18.9099L114.89 10.9299C114.852 10.7351 114.754 10.5568 114.611 10.4191C114.468 10.2814 114.286 10.1909 114.09 10.1599C114.031 10.1482 113.971 10.1415 113.91 10.1399C113.45 10.1399 113.05 10.4599 112.92 10.9199C112.91 10.9699 111.79 15.4799 110.92 18.9099L110.9 18.9799L110.88 18.9099C110.03 15.4799 108.88 10.9699 108.88 10.9199C108.833 10.7285 108.731 10.5548 108.588 10.42C108.444 10.2851 108.264 10.1948 108.07 10.1599C107.904 10.1305 107.732 10.1429 107.572 10.196C107.411 10.2491 107.267 10.3413 107.151 10.4643C107.035 10.5873 106.951 10.7372 106.907 10.9005C106.864 11.0638 106.861 11.2354 106.9 11.3999L109.91 23.4299C109.967 23.6503 110.095 23.846 110.274 23.9869C110.452 24.1278 110.672 24.2062 110.9 24.2099C111.39 24.2099 111.78 23.8899 111.88 23.4299L113.88 15.4399L113.91 15.3699L113.93 15.4399C114.81 18.9099 115.93 23.4399 115.93 23.4399C115.99 23.6561 116.117 23.8475 116.294 23.986C116.47 24.1246 116.686 24.203 116.91 24.2099C117.141 24.2171 117.366 24.1428 117.547 24.0002C117.728 23.8575 117.853 23.6556 117.9 23.4299L120.9 11.3999Z" fill="#333545"/>
</svg>
