<svg width="98" height="34" viewBox="0 0 98 34" fill="none" xmlns="http://www.w3.org/2000/svg">
<path fill-rule="evenodd" clip-rule="evenodd" d="M86.2875 15.8086L80.0503 26.6429L74.7288 26.6641L86.2875 6.27156L97.803 26.6641H92.3972L86.2875 15.8075V15.8086ZM69.4926 21.9477H75.4527L72.6855 26.6641H64.9172L64.9383 20.9213V6.39693H69.5148L69.4937 21.9477H69.4926ZM53.1467 6.398C58.8296 6.41925 63.4272 10.9455 63.4061 16.5406C63.385 22.1156 58.7875 26.6429 53.1035 26.6429C47.4416 26.6216 42.844 22.0954 42.844 16.4992C42.8651 10.9242 47.4627 6.398 53.1467 6.398ZM53.1256 21.9275C56.1688 21.9275 58.6157 19.5167 58.6157 16.5406C58.6378 13.5656 56.1689 11.1336 53.1467 11.1336C50.1234 11.1123 47.6544 13.5444 47.6544 16.5204C47.6334 19.4954 50.1023 21.9275 53.1245 21.9275H53.1256ZM34.3728 14.9309C34.3096 14.0916 34.0957 12.9812 33.7764 11.9134C33.1194 9.70781 31.9772 7.68013 30.4349 5.98149C29.6256 5.10175 28.7109 4.28362 27.3474 3.31993C26.3079 2.80271 25.2859 2.25061 24.283 1.66456C23.6234 1.28737 22.8352 0.825183 21.793 0.490495C20.5573 0.196397 19.2941 0.0350602 18.0247 0.00918289C16.7918 -0.0333171 15.5558 0.0729329 14.364 0.302433C13.1079 0.511745 12.0646 0.846433 10.681 1.18218C7.55137 2.54431 5.12561 4.59812 3.03916 7.32343C-4.24024 17.5712 2.33735 31.9277 14.4915 33.6246C16.4926 33.8976 18.4936 33.7924 20.3873 33.3526L21.7287 32.9966C21.7709 32.9754 21.8351 32.9541 21.8773 32.9541L23.4105 32.3676C23.4948 32.3251 23.5591 32.3039 23.6444 32.2624L24.283 31.9692C25.5083 31.3595 26.6584 30.6071 27.7099 29.7273C26.7527 30.6042 25.7118 31.3832 24.6023 32.0531L24.6655 32.0956C24.8795 32.0319 25.0702 31.9692 25.283 31.9277C25.283 31.9277 25.283 32.2624 25.2409 32.1997C24.9005 32.4516 25.4327 32.221 26.1134 31.864C26.7952 31.5081 27.4549 31.0671 28.0502 30.5646C28.9238 29.8314 29.6899 29.0346 30.7753 27.7362C31.8817 25.7865 33.2664 24.0886 33.9049 21.8042C34.1178 21.1965 34.3085 20.4846 34.4371 19.7504C34.5635 19.0173 34.6499 18.2629 34.6499 17.4873C34.6289 16.7117 34.5435 15.9148 34.3728 14.9309ZM18.6212 32.1583C22.3462 31.5707 25.4748 29.4967 28.0292 26.6673C28.732 25.6399 29.2852 24.6964 29.966 23.67C30.8174 21.5737 30.7542 19.709 31.0303 18.3894C31.3717 15.9987 30.5624 14.0714 29.8817 12.0176C28.8384 9.628 27.4549 7.84725 25.028 6.46387C18.8972 2.6495 10.5535 3.71731 6.57348 9.41868C6.5524 9.41868 6.44492 9.56531 6.23206 9.85856C6.5092 8.68556 7.21206 7.99387 7.91386 7.32237C10.0003 5.60431 12.4271 4.24112 15.1943 3.57175C18.324 3.236 21.4305 3.57175 24.2187 4.93387C28.3916 7.32237 31.1588 11.0751 31.8606 15.5164V19.6251C30.9881 26.3528 25.2409 31.4666 18.6212 32.1583ZM33.926 16.8583C33.7764 7.00893 24.0491 0.36512 14.5768 1.70706C11.8096 2.39768 8.78638 3.78106 6.6367 5.7095C5.59348 6.40012 5.10453 7.67937 4.06131 8.70575C-0.111597 14.847 0.613392 22.7063 5.80634 27.4854C6.47246 28.1494 7.18372 28.7658 7.93494 29.3299C3.59344 26.7087 1.63449 22.7467 0.953758 17.9282C0.953758 16.2091 1.29412 14.5112 1.65556 12.7932C4.08344 5.26856 11.7243 -0.201192 20.048 1.18218C21.4315 1.51793 22.8151 1.87387 24.2209 2.20962C25.9659 2.90025 27.6898 3.92768 29.0734 5.29087C30.457 6.65193 31.5003 8.37106 32.5435 10.0679C33.2453 11.4311 33.5867 13.1491 33.9271 14.5112C33.9903 15.2869 33.9903 16.0837 33.9271 16.8594L33.926 16.8583Z" fill="black"/>
<path fill-rule="evenodd" clip-rule="evenodd" d="M25.2839 17.0059C25.2839 21.2399 21.7507 24.6771 17.387 24.6771C13.0244 24.6771 9.49011 21.2399 9.49011 17.0059C9.49011 12.7729 13.0234 9.33569 17.387 9.33569C21.7507 9.33569 25.2839 12.7729 25.2839 17.0069V17.0059Z" fill="white"/>
<path fill-rule="evenodd" clip-rule="evenodd" d="M25.3272 15.7064C25.2208 15.1199 25.0501 14.6588 24.8804 14.0096C24.1986 12.5837 23.1986 11.4734 21.8782 10.5299C16.9403 7.2404 10.1499 10.4045 9.42698 16.022C9.15089 18.2436 9.93805 20.3814 11.3427 22.0166C10.917 21.5756 10.4491 21.1156 10.1298 20.5907L10.0877 20.6332C10.1298 20.7586 10.3005 20.8425 10.3427 20.9679C10.3427 20.9679 10.172 20.9679 10.2152 20.9466C10.0877 20.8011 10.1941 21.0316 10.3848 21.3451C10.5556 21.6596 10.7684 21.9539 11.0234 22.2259C11.3859 22.6243 11.7684 22.9803 12.407 23.4626C13.3449 23.944 14.1742 24.573 15.2596 24.8662C15.5578 24.9512 15.8981 25.0341 16.2396 25.0968C16.601 25.1605 16.9414 25.1818 17.3249 25.1818C17.6864 25.1818 18.0699 25.1393 18.5378 25.0543C19.0203 24.997 19.4972 24.8992 19.9636 24.7621C21.0053 24.4459 21.9649 23.9017 22.7739 23.1683C23.1786 22.7922 23.7539 22.3098 24.1997 21.6808C24.5622 20.969 24.6043 20.612 24.775 20.2975C24.9447 19.983 25.1576 19.627 25.3072 19.1446C25.4292 18.5724 25.5004 17.9903 25.5201 17.4053C25.499 16.8188 25.4568 16.2525 25.3283 15.7075L25.3272 15.7064ZM20.2607 11.8091C20.9847 12.2278 21.0911 12.2905 20.7075 12.0185C21.2618 12.1438 21.6022 12.4583 21.9425 12.7728C22.7729 13.7163 23.4536 14.8266 23.794 16.1048C23.9858 17.5509 23.8361 18.997 23.2197 20.2762C22.1132 22.2248 20.3461 23.5243 18.2385 23.8802C18.0046 23.8802 17.7496 23.8802 17.5146 23.9015C18.111 23.7963 18.4946 23.4191 19.58 23.0206C20.7497 22.602 22.07 20.6534 22.7097 19.5208C24.5822 16.4395 22.3682 13.5899 20.2607 11.8091ZM16.2596 23.9216C13.0245 23.587 10.5334 20.9254 10.1931 17.8441C10.4902 19.5633 11.5124 20.8829 12.896 22.057C13.386 22.3715 14.1088 22.8113 14.5988 23.1258C15.4292 23.4403 15.9182 23.7761 16.7275 23.9227H16.2596V23.9216ZM24.9647 18.3265C24.8172 18.9768 24.6676 19.6047 24.5179 20.255C24.1986 21.0518 23.7308 21.8689 23.0922 22.5181C22.4536 23.1683 21.6443 23.6709 20.8361 24.1533C20.1975 24.488 19.3882 24.6558 18.7285 24.8226C18.345 24.8651 17.8982 24.6973 17.5146 24.6771C22.2407 24.5506 25.4758 20.1296 24.774 15.7489C24.4326 14.4707 23.7518 13.3593 22.9215 12.249C22.5811 11.7666 21.9204 11.4734 21.4315 10.991C18.4725 9.12633 14.5567 9.50352 12.3217 11.9558C12.0083 12.278 11.7164 12.6209 11.4481 12.9821C12.641 11.2216 14.5567 9.9859 16.855 9.6289C17.6642 9.60765 18.4946 9.75533 19.3028 9.90196C22.8793 10.991 25.5401 14.4707 24.9647 18.3276V18.3265Z" fill="#D7DF23"/>
</svg>
