<svg width="103" height="32" viewBox="0 0 103 32" fill="none" xmlns="http://www.w3.org/2000/svg">
<g clip-path="url(#clip0_527_525)">
<path fill-rule="evenodd" clip-rule="evenodd" d="M63.8991 25.025C57.9136 29.5733 49.238 32 41.7684 32C31.2949 32 21.8661 28.0064 14.7328 21.3642C14.1724 20.8419 14.6745 20.13 15.347 20.5368C23.0453 25.1544 32.5638 27.9324 42.3961 27.9324C49.0273 27.9324 56.322 26.518 63.0293 23.5829C64.0426 23.1391 64.89 24.267 63.8991 25.025Z" fill="#FF9900"/>
<path fill-rule="evenodd" clip-rule="evenodd" d="M66.3878 22.0899C65.6256 21.0822 61.3304 21.6138 59.4025 21.8495C58.8152 21.9235 58.7255 21.3966 59.2545 21.0175C62.6755 18.5354 68.2888 19.2518 68.9434 20.0838C69.598 20.9205 68.773 26.7214 65.5584 29.4902C65.0652 29.9154 64.5944 29.6889 64.8141 29.125C65.5359 27.2668 67.1545 23.1022 66.3878 22.0899Z" fill="#FF9900"/>
<path fill-rule="evenodd" clip-rule="evenodd" d="M59.5369 3.4944V1.08157C59.5369 0.716416 59.8059 0.471436 60.1287 0.471436H70.6067C70.943 0.471436 71.212 0.721038 71.212 1.08157V3.14773C71.2075 3.4944 70.925 3.94738 70.4229 4.66383L64.9933 12.6557C67.0109 12.6049 69.1406 12.9146 70.9699 13.9777C71.3823 14.2181 71.4944 14.5694 71.5258 14.916V17.4906C71.5258 17.8419 71.1492 18.2533 70.7546 18.0407C67.531 16.2981 63.2492 16.1086 59.6848 18.0592C59.3216 18.2626 58.9406 17.8558 58.9406 17.5045V15.0593C58.9406 14.6664 58.945 13.9962 59.3261 13.3999L65.6165 4.09992H60.1421C59.8059 4.09992 59.5369 3.85494 59.5369 3.4944Z" fill="black"/>
<path fill-rule="evenodd" clip-rule="evenodd" d="M21.3147 18.5491H18.1269C17.822 18.526 17.5799 18.2903 17.5575 17.9898V1.12318C17.5575 0.785752 17.831 0.517659 18.1717 0.517659H21.1443C21.4537 0.531516 21.7003 0.776505 21.7227 1.08157V3.2864H21.781C22.5566 1.15553 24.0138 0.161743 25.9776 0.161743C27.9727 0.161743 29.2191 1.15553 30.1158 3.2864C30.887 1.15553 32.6401 0.161743 34.5187 0.161743C35.8548 0.161743 37.3164 0.730282 38.2086 2.00603C39.2174 3.42506 39.0112 5.4866 39.0112 7.2939L39.0067 17.939C39.0067 18.2764 38.7332 18.5491 38.3924 18.5491H35.2091C34.8908 18.526 34.6352 18.2625 34.6352 17.939V8.99952C34.6352 8.28769 34.698 6.51274 34.5456 5.83789C34.3079 4.70544 33.5951 4.3865 32.6715 4.3865C31.9003 4.3865 31.0933 4.91806 30.766 5.76856C30.4387 6.61905 30.47 8.04271 30.47 8.99952V17.939C30.47 18.2764 30.1966 18.5491 29.8558 18.5491H26.6725C26.3497 18.526 26.0986 18.2625 26.0986 17.939L26.0941 8.99952C26.0941 7.11826 26.3945 4.34952 24.1303 4.34952C21.8393 4.34952 21.9289 7.04892 21.9289 8.99952V17.939C21.9289 18.2764 21.6554 18.5491 21.3147 18.5491" fill="black"/>
<path fill-rule="evenodd" clip-rule="evenodd" d="M80.2326 0.161743C84.9627 0.161743 87.5228 4.34952 87.5228 9.67438C87.5228 14.819 84.6937 18.9004 80.2326 18.9004C75.5877 18.9004 73.059 14.7126 73.059 9.49411C73.059 4.24321 75.6191 0.161743 80.2326 0.161743ZM80.2595 3.60534C77.9101 3.60534 77.7622 6.90563 77.7622 8.96255C77.7622 11.0241 77.7308 15.4245 80.2326 15.4245C82.703 15.4245 82.8196 11.8746 82.8196 9.71135C82.8196 8.28769 82.7613 6.5867 82.3444 5.23699C81.9857 4.06294 81.2728 3.60534 80.2595 3.60534Z" fill="black"/>
<path fill-rule="evenodd" clip-rule="evenodd" d="M93.6563 18.5491H90.4819C90.1636 18.526 89.908 18.2625 89.908 17.939L89.9036 1.06771C89.9305 0.758016 90.195 0.517659 90.5178 0.517659H93.4724C93.7504 0.531516 93.9791 0.725661 94.0419 0.98913V3.56835H94.1001C94.9924 1.26184 96.2433 0.161743 98.4447 0.161743C99.8749 0.161743 101.269 0.693305 102.166 2.14932C103 3.49902 103 5.76856 103 7.40021V18.0176C102.964 18.3134 102.7 18.5491 102.386 18.5491H99.1889C98.8975 18.526 98.6554 18.3041 98.624 18.0176V8.85623C98.624 7.01195 98.8303 4.31254 96.6288 4.31254C95.8532 4.31254 95.1403 4.84873 94.7861 5.66224C94.3378 6.69301 94.2795 7.71915 94.2795 8.85623V17.939C94.275 18.2764 93.997 18.5491 93.6563 18.5491" fill="black"/>
<path fill-rule="evenodd" clip-rule="evenodd" d="M51.184 10.4926C51.184 11.7729 51.2154 12.8407 50.5877 13.9777C50.0811 14.9022 49.274 15.4707 48.3818 15.4707C47.1578 15.4707 46.4404 14.5093 46.4404 13.0903C46.4404 10.2892 48.875 9.78073 51.184 9.78073V10.4926ZM54.3987 18.5029C54.188 18.6971 53.8831 18.7109 53.6455 18.5815C52.5873 17.6756 52.3946 17.2549 51.8162 16.3906C50.0676 18.2302 48.8257 18.7803 46.5615 18.7803C43.8759 18.7803 41.791 17.0747 41.791 13.6588C41.791 10.9918 43.1899 9.17521 45.1895 8.28773C46.9202 7.50194 49.3368 7.36328 51.184 7.14603V6.72078C51.184 5.93962 51.2423 5.01516 50.7939 4.34031C50.4084 3.73479 49.6641 3.48519 49.005 3.48519C47.79 3.48519 46.7094 4.12769 46.4449 5.4589C46.3911 5.75473 46.1804 6.04593 45.889 6.0598L42.7998 5.71775C42.5398 5.65766 42.2483 5.44041 42.3246 5.02903C43.033 1.16482 46.4225 0 49.4534 0C51.0047 0 53.0312 0.42525 54.2552 1.63628C55.8065 3.12928 55.6586 5.12148 55.6586 7.28932V12.4108C55.6586 13.95 56.2773 14.6249 56.8601 15.4569C57.0619 15.7527 57.1067 16.1086 56.8467 16.3305C56.1966 16.8898 55.0398 17.9298 54.4032 18.5122L54.3987 18.5029" fill="black"/>
<path fill-rule="evenodd" clip-rule="evenodd" d="M9.39298 10.4928C9.39298 11.7732 9.42437 12.8409 8.79667 13.978C8.29003 14.9024 7.48748 15.471 6.59078 15.471C5.36678 15.471 4.6539 14.5095 4.6539 13.0905C4.6539 10.2894 7.08845 9.78097 9.39298 9.78097V10.4928ZM12.6077 18.5032C12.3969 18.6973 12.0921 18.7112 11.8544 18.5818C10.7963 17.6758 10.608 17.2552 10.0252 16.3908C8.27658 18.2305 7.03913 18.7805 4.77047 18.7805C2.08932 18.7805 0 17.0749 0 13.6591C0 10.992 1.40334 9.17545 3.39851 8.28798C5.12915 7.50219 7.54577 7.36352 9.39298 7.14628V6.72103C9.39298 5.93986 9.45127 5.01541 9.0074 4.34056C8.61733 3.73504 7.87307 3.48544 7.21847 3.48544C6.00344 3.48544 4.91843 4.12793 4.6539 5.45914C4.60009 5.75497 4.38937 6.04617 4.10242 6.06004L1.00879 5.71799C0.748748 5.6579 0.461802 5.44065 0.533539 5.02928C1.24642 1.16506 4.63148 0.000244141 7.66234 0.000244141C9.21364 0.000244141 11.2402 0.425494 12.4642 1.63653C14.0155 3.12952 13.8675 5.12172 13.8675 7.28956V12.411C13.8675 13.9503 14.4863 14.6251 15.0691 15.4571C15.2754 15.7529 15.3202 16.1089 15.0602 16.3307C14.41 16.89 13.2533 17.93 12.6166 18.5124L12.6077 18.5032" fill="black"/>
</g>
<defs>
<clipPath id="clip0_527_525">
<rect width="103" height="32" fill="white"/>
</clipPath>
</defs>
</svg>
