<svg width="167" height="52" viewBox="0 0 167 52" fill="none" xmlns="http://www.w3.org/2000/svg">
<path d="M27.9686 32H29.6406V22.056H33.4726V20.48H24.1366V22.056H27.9686V32ZM38.4839 21.912H40.0839V20.312H38.4839V21.912ZM35.2599 21.912H36.8599V20.312H35.2599V21.912ZM37.2119 32.232C37.8359 32.232 38.3879 32.12 38.8679 31.896C39.3533 31.672 39.7533 31.3627 40.0679 30.968V32H41.5559V23.36H39.8679V27.856C39.8679 28.5387 39.7693 29.0853 39.5719 29.496C39.3746 29.9013 39.1079 30.1947 38.7719 30.376C38.4413 30.5573 38.0759 30.648 37.6759 30.648C37.2173 30.648 36.8439 30.5547 36.5559 30.368C36.2679 30.1813 36.0466 29.936 35.8919 29.632C35.7373 29.328 35.6306 29 35.5719 28.648C35.5186 28.2907 35.4919 27.944 35.4919 27.608V23.36H33.7959V28.16C33.7959 28.4267 33.8199 28.736 33.8679 29.088C33.9159 29.44 34.0066 29.8 34.1399 30.168C34.2733 30.536 34.4653 30.8773 34.7159 31.192C34.9719 31.5013 35.3026 31.752 35.7079 31.944C36.1133 32.136 36.6146 32.232 37.2119 32.232ZM43.7917 32H45.4717V26.6C45.4717 26.0133 45.6317 25.5387 45.9517 25.176C46.277 24.8133 46.7037 24.632 47.2317 24.632C47.765 24.632 48.189 24.8133 48.5037 25.176C48.8237 25.5333 48.9837 26.024 48.9837 26.648L48.9757 32H50.6477L50.6557 26.6C50.6557 25.9493 50.829 25.4587 51.1757 25.128C51.5277 24.7973 51.941 24.632 52.4157 24.632C52.9384 24.632 53.3597 24.808 53.6797 25.16C53.9997 25.512 54.1597 25.9973 54.1597 26.616L54.1517 32H55.8237L55.8317 26.216C55.8317 25.288 55.573 24.544 55.0557 23.984C54.5437 23.424 53.8237 23.144 52.8957 23.144C52.3304 23.144 51.8184 23.2693 51.3597 23.52C50.901 23.7653 50.5384 24.1067 50.2717 24.544C50.0424 24.1067 49.7144 23.7653 49.2877 23.52C48.8664 23.2693 48.357 23.144 47.7597 23.144C47.2424 23.144 46.7677 23.248 46.3357 23.456C45.909 23.6587 45.557 23.936 45.2797 24.288V23.36H43.7917V32ZM62.4371 21.912H64.0371V20.312H62.4371V21.912ZM59.2131 21.912H60.8131V20.312H59.2131V21.912ZM61.1651 32.232C61.7891 32.232 62.3411 32.12 62.8211 31.896C63.3064 31.672 63.7064 31.3627 64.0211 30.968V32H65.5091V23.36H63.8211V27.856C63.8211 28.5387 63.7224 29.0853 63.5251 29.496C63.3277 29.9013 63.0611 30.1947 62.7251 30.376C62.3944 30.5573 62.0291 30.648 61.6291 30.648C61.1704 30.648 60.7971 30.5547 60.5091 30.368C60.2211 30.1813 59.9997 29.936 59.8451 29.632C59.6904 29.328 59.5837 29 59.5251 28.648C59.4717 28.2907 59.4451 27.944 59.4451 27.608V23.36H57.7491V28.16C57.7491 28.4267 57.7731 28.736 57.8211 29.088C57.8691 29.44 57.9597 29.8 58.0931 30.168C58.2264 30.536 58.4184 30.8773 58.6691 31.192C58.9251 31.5013 59.2557 31.752 59.6611 31.944C60.0664 32.136 60.5677 32.232 61.1651 32.232ZM67.7448 32H69.4408V27.504C69.4408 26.8213 69.5395 26.2773 69.7368 25.872C69.9395 25.4613 70.2061 25.1653 70.5368 24.984C70.8675 24.8027 71.2328 24.712 71.6328 24.712C72.0915 24.712 72.4648 24.8053 72.7528 24.992C73.0408 25.1787 73.2621 25.424 73.4168 25.728C73.5715 26.032 73.6755 26.3627 73.7288 26.72C73.7875 27.072 73.8168 27.416 73.8168 27.752V32H75.5128V27.2C75.5128 26.9333 75.4888 26.624 75.4408 26.272C75.3928 25.92 75.3021 25.56 75.1688 25.192C75.0355 24.824 74.8408 24.4853 74.5848 24.176C74.3341 23.8613 74.0061 23.608 73.6008 23.416C73.1955 23.224 72.6941 23.128 72.0968 23.128C71.4728 23.128 70.9181 23.24 70.4328 23.464C69.9528 23.688 69.5555 23.9973 69.2408 24.392V23.36H67.7448V32ZM82.1246 21.912H83.7246V20.312H82.1246V21.912ZM78.9006 21.912H80.5006V20.312H78.9006V21.912ZM80.8526 32.232C81.4766 32.232 82.0286 32.12 82.5086 31.896C82.9939 31.672 83.3939 31.3627 83.7086 30.968V32H85.1966V23.36H83.5086V27.856C83.5086 28.5387 83.4099 29.0853 83.2126 29.496C83.0152 29.9013 82.7486 30.1947 82.4126 30.376C82.0819 30.5573 81.7166 30.648 81.3166 30.648C80.8579 30.648 80.4846 30.5547 80.1966 30.368C79.9086 30.1813 79.6872 29.936 79.5326 29.632C79.3779 29.328 79.2712 29 79.2126 28.648C79.1592 28.2907 79.1326 27.944 79.1326 27.608V23.36H77.4366V28.16C77.4366 28.4267 77.4606 28.736 77.5086 29.088C77.5566 29.44 77.6472 29.8 77.7806 30.168C77.9139 30.536 78.1059 30.8773 78.3566 31.192C78.6126 31.5013 78.9432 31.752 79.3486 31.944C79.7539 32.136 80.2552 32.232 80.8526 32.232ZM95.3554 32.24C96.4754 32.24 97.4248 32.0027 98.2034 31.528C98.9874 31.048 99.5848 30.3893 99.9954 29.552C100.406 28.7147 100.611 27.7627 100.611 26.696C100.611 26.6533 100.609 26.5547 100.603 26.4C100.598 26.2453 100.59 26.1173 100.579 26.016H96.5634V27.36H98.8034C98.6861 28.4267 98.3448 29.2453 97.7794 29.816C97.2141 30.3813 96.4381 30.6587 95.4514 30.648C94.2301 30.6373 93.3101 30.2293 92.6914 29.424C92.0781 28.6187 91.7741 27.5573 91.7794 26.24C91.7848 25.36 91.9208 24.5893 92.1874 23.928C92.4594 23.2613 92.8674 22.744 93.4114 22.376C93.9554 22.008 94.6354 21.8267 95.4514 21.832C96.2461 21.8373 96.9048 22.0453 97.4274 22.456C97.9501 22.8667 98.3261 23.416 98.5554 24.104L100.251 23.8C99.9581 22.6907 99.4061 21.8213 98.5954 21.192C97.7901 20.5627 96.7101 20.248 95.3554 20.248C94.3048 20.248 93.3768 20.4907 92.5714 20.976C91.7661 21.456 91.1368 22.144 90.6834 23.04C90.2301 23.9307 90.0034 24.9973 90.0034 26.24C90.0034 27.4987 90.2354 28.576 90.6994 29.472C91.1634 30.368 91.7981 31.0533 92.6034 31.528C93.4088 32.0027 94.3261 32.24 95.3554 32.24ZM106.782 21.912H108.382V20.312H106.782V21.912ZM103.558 21.912H105.158V20.312H103.558V21.912ZM105.958 32.24C106.817 32.24 107.563 32.048 108.198 31.664C108.833 31.2747 109.323 30.7387 109.67 30.056C110.022 29.368 110.198 28.5733 110.198 27.672C110.198 26.7813 110.025 25.9947 109.678 25.312C109.331 24.624 108.841 24.088 108.206 23.704C107.571 23.3147 106.822 23.12 105.958 23.12C105.11 23.12 104.369 23.312 103.734 23.696C103.099 24.08 102.606 24.6133 102.254 25.296C101.902 25.9787 101.726 26.7707 101.726 27.672C101.726 28.5627 101.899 29.352 102.246 30.04C102.593 30.728 103.081 31.2667 103.71 31.656C104.345 32.0453 105.094 32.24 105.958 32.24ZM105.958 30.664C105.153 30.664 104.542 30.3947 104.126 29.856C103.71 29.312 103.502 28.584 103.502 27.672C103.502 26.792 103.702 26.0773 104.102 25.528C104.502 24.9733 105.121 24.696 105.958 24.696C106.774 24.696 107.387 24.9653 107.798 25.504C108.214 26.0427 108.422 26.7653 108.422 27.672C108.422 28.5573 108.217 29.2773 107.806 29.832C107.401 30.3867 106.785 30.664 105.958 30.664ZM111.956 32H113.644V27.64C113.644 27.1333 113.724 26.664 113.884 26.232C114.044 25.8 114.327 25.4533 114.732 25.192C115.02 25.0053 115.337 24.896 115.684 24.864C116.031 24.832 116.343 24.8533 116.62 24.928V23.36C116.231 23.2853 115.817 23.288 115.38 23.368C114.948 23.448 114.569 23.608 114.244 23.848C113.924 24.0613 113.657 24.3573 113.444 24.736V23.36H111.956V32Z" fill="#F84646"/>
<g clip-path="url(#clip0_527_504)">
<path d="M130 26H141" stroke="#F84646" stroke-width="2" stroke-linecap="round" stroke-linejoin="round"/>
<path d="M136.5 21.5L141 26L136.5 30.5" stroke="#F84646" stroke-width="2" stroke-linecap="round" stroke-linejoin="round"/>
</g>
<defs>
<clipPath id="clip0_527_504">
<rect width="16" height="16" fill="white" transform="translate(127.5 18)"/>
</clipPath>
</defs>
</svg>
